<svg xmlns="http://www.w3.org/2000/svg" viewBox="0 0 512 512">
  <defs>
    <linearGradient id="bgGrad" x1="0%" y1="0%" x2="100%" y2="100%">
      <stop offset="0%" style="stop-color:#1a1c16;stop-opacity:1" />
      <stop offset="100%" style="stop-color:#0d0e0b;stop-opacity:1" />
    </linearGradient>
    <linearGradient id="markerGrad" x1="0%" y1="0%" x2="0%" y2="100%">
      <stop offset="0%" style="stop-color:#a2ad91;stop-opacity:1" />
      <stop offset="100%" style="stop-color:#556b2f;stop-opacity:1" />
    </linearGradient>
  </defs>
  <!-- Background -->
  <rect width="512" height="512" rx="112" fill="url(#bgGrad)"/>

  <!-- Contour lines (subtle) -->
  <path d="M-50 400 C 100 350 400 450 562 380" stroke="#3a3e2f" fill="none" stroke-width="12" opacity="0.6"/>
  <path d="M-50 300 C 150 250 350 350 562 280" stroke="#3a3e2f" fill="none" stroke-width="10" opacity="0.4"/>
  <path d="M-50 200 C 120 180 380 220 562 180" stroke="#3a3e2f" fill="none" stroke-width="8" opacity="0.2"/>

  <!-- Marker Shadow -->
  <ellipse cx="256" cy="460" rx="60" ry="20" fill="#000" opacity="0.4"/>

  <!-- The Marker -->
  <path d="M256 50 C 170 50 100 120 100 206 C 100 260 140 330 256 462 C 372 330 412 260 412 206 C 412 120 342 50 256 50 Z" fill="url(#markerGrad)"/>

  <!-- Inner Circle -->
  <circle cx="256" cy="206" r="65" fill="#1a1c16"/>

  <!-- Stylized 'K' or Target -->
  <path d="M230 170 L 230 242 M 230 206 L 282 170 M 230 206 L 282 242" stroke="#bdb76b" stroke-width="18" stroke-linecap="round" stroke-linejoin="round"/>
</svg>
